HIERARCHY
ROOT Hips
{
	OFFSET 0.00000 0.00000 0.00000
	CHANNELS 6 Xposition Yposition Zposition Zrotation Yrotation Xrotation 
	JOINT LHipJoint
	{
		OFFSET 0 0 0
		CHANNELS 3 Zrotation Yrotation Xrotation
		JOINT LeftUpLeg
		{
			OFFSET 1.58895 -1.83665 0.71753
			CHANNELS 3 Zrotation Yrotation Xrotation
			JOINT LeftLeg
			{
				OFFSET 2.50528 -6.88321 0.00000
				CHANNELS 3 Zrotation Yrotation Xrotation
				JOINT LeftFoot
				{
					OFFSET 2.63244 -7.23257 0.00000
					CHANNELS 3 Zrotation Yrotation Xrotation
					JOINT LeftToeBase
					{
						OFFSET 0.23691 -0.65090 1.72750
						CHANNELS 3 Zrotation Yrotation Xrotation
						End Site
						{
							OFFSET 0.00000 -0.00000 0.92561
						}
					}
				}
			}
		}
	}
	JOINT RHipJoint
	{
		OFFSET 0 0 0
		CHANNELS 3 Zrotation Yrotation Xrotation
		JOINT RightUpLeg
		{
			OFFSET -1.51435 -1.83665 0.71753
			CHANNELS 3 Zrotation Yrotation Xrotation
			JOINT RightLeg
			{
				OFFSET -2.54551 -6.99375 0.00000
				CHANNELS 3 Zrotation Yrotation Xrotation
				JOINT RightFoot
				{
					OFFSET -2.66027 -7.30903 0.00000
					CHANNELS 3 Zrotation Yrotation Xrotation
					JOINT RightToeBase
					{
						OFFSET -0.22981 -0.63138 2.03959
						CHANNELS 3 Zrotation Yrotation Xrotation
						End Site
						{
							OFFSET -0.00000 -0.00000 1.07060
						}
					}
				}
			}
		}
	}
	JOINT LowerBack
	{
		OFFSET 0 0 0
		CHANNELS 3 Zrotation Yrotation Xrotation
		JOINT Spine
		{
			OFFSET -0.02651 1.86275 -0.11152
			CHANNELS 3 Zrotation Yrotation Xrotation
			JOINT Spine1
			{
				OFFSET 0.01019 1.86224 0.04087
				CHANNELS 3 Zrotation Yrotation Xrotation
				JOINT Neck
				{
					OFFSET 0 0 0
					CHANNELS 3 Zrotation Yrotation Xrotation
					JOINT Neck1
					{
						OFFSET -0.01926 1.80512 0.08867
						CHANNELS 3 Zrotation Yrotation Xrotation
						JOINT Head
						{
							OFFSET 0.05516 1.76451 -0.38475
							CHANNELS 3 Zrotation Yrotation Xrotation
							End Site
							{
								OFFSET 0.01592 1.82587 -0.14001
							}
						}
					}
				}
				JOINT LeftShoulder
				{
					OFFSET 0 0 0
					CHANNELS 3 Zrotation Yrotation Xrotation
					JOINT LeftArm
					{
						OFFSET 3.47116 1.51376 0.14491
						CHANNELS 3 Zrotation Yrotation Xrotation
						JOINT LeftForeArm
						{
							OFFSET 4.78095 -0.00000 0.00000
							CHANNELS 3 Zrotation Yrotation Xrotation
							JOINT LeftHand
							{
								OFFSET 3.58615 -0.00000 -0.00000
								CHANNELS 3 Zrotation Yrotation Xrotation
								JOINT LeftFingerBase
								{
									OFFSET 0 0 0
									CHANNELS 3 Zrotation Yrotation Xrotation
									JOINT LeftHandIndex1
									{
										OFFSET 0.65981 -0.00000 0.00000
										CHANNELS 3 Zrotation Yrotation Xrotation
										End Site
										{
											OFFSET 0.53196 -0.00000 0.00000
										}
									}
								}
								JOINT LThumb
								{
									OFFSET 0 0 0
									CHANNELS 3 Zrotation Yrotation Xrotation
									End Site
									{
										OFFSET 0.54008 -0.00000 0.54008
									}
								}
							}
						}
					}
				}
				JOINT RightShoulder
				{
					OFFSET 0 0 0
					CHANNELS 3 Zrotation Yrotation Xrotation
					JOINT RightArm
					{
						OFFSET -3.31725 1.61216 0.35156
						CHANNELS 3 Zrotation Yrotation Xrotation
						JOINT RightForeArm
						{
							OFFSET -4.48913 -0.00000 0.00000
							CHANNELS 3 Zrotation Yrotation Xrotation
							JOINT RightHand
							{
								OFFSET -3.70510 -0.00000 0.00000
								CHANNELS 3 Zrotation Yrotation Xrotation
								JOINT RightFingerBase
								{
									OFFSET 0 0 0
									CHANNELS 3 Zrotation Yrotation Xrotation
									JOINT RightHandIndex1
									{
										OFFSET -0.44914 -0.00000 0.00000
										CHANNELS 3 Zrotation Yrotation Xrotation
										End Site
										{
											OFFSET -0.36211 -0.00000 0.00000
										}
									}
								}
								JOINT RThumb
								{
									OFFSET 0 0 0
									CHANNELS 3 Zrotation Yrotation Xrotation
									End Site
									{
										OFFSET -0.36763 -0.00000 0.36763
									}
								}
							}
						}
					}
				}
			}
		}
	}
}
MOTION
Frames: 14
Frame Time: .0083333
-1.0816 18.1811 5.595 0 0 0 0 0 0 -21 0 0 0 0 0 0 0 0 0 0 0 0 0 0 21 0 0 0 0 0 0 0 0 0 0 0 0 0 0 0 0 0 0 0 0 0 0 -16 0 0 21 0 0 11 0 0 0 -8 0 0 0 0 0 0 0 0 0 0 0 0 0 0 0 0 0 0 0 0 8 0 0 0 0 0 0 0 0 0 0 0 0 0 0 0 0 0
-1.0816 18.1811 5.5950 -2.4768 -4.4134 1.5413 0.0000 0.0000 0.0000 -14.7482 -4.4227 17.2624 0.7072 -5.3748 -14.9808 -1.2767 20.9134 -16.0604 0.0683 -1.6859 -4.6385 0.0000 0.0000 0.0000 17.8153 -1.6164 8.4889 -0.0439 1.3526 -3.7196 -0.6646 -4.3177 -17.5698 -0.3354 -3.7216 10.2946 -0.1529 1.0155 1.8425 1.2080 1.3642 -0.0607 1.2845 0.6860 -1.1276 -4.2290 -2.1145 -9.3293 4.5605 -3.0061 16.4663 1.9073 -1.3388 6.6804 0.0000 0.0000 0.0000 -88.8429 11.3858 31.8881 20.7757 -31.5656 -5.9321 -0.0000 0.0000 -2.7933 6.3428 -28.4970 -3.0358 -7.1250 0.0000 -0.0000 -14.1720 2.0804 14.0909 0.0000 0.0000 0.0000 84.9578 -16.5618 30.9294 -23.1932 34.2995 -7.2469 0.0000 0.0000 9.1667 -8.1043 -26.6571 3.6555 7.1250 -0.0000 -0.0000 23.3905 -55.2952 -6.1581
-1.0819 18.1813 5.5956 -2.4511 -4.3995 1.5488 0.0000 0.0000 0.0000 -14.7813 -4.4718 17.2537 0.7047 -5.3656 -14.9543 -1.2776 20.9267 -16.0881 0.0669 -1.6687 -4.5910 0.0000 0.0000 0.0000 17.7845 -1.6352 8.4994 -0.0451 1.3707 -3.7693 -0.6587 -4.3566 -17.5306 -0.3303 -3.6934 10.2157 -0.1892 1.0077 1.8239 1.2017 1.3531 -0.0785 1.2989 0.6808 -1.1359 -4.0524 -2.1708 -9.5320 4.2860 -3.0647 16.7011 1.7836 -1.3754 6.7875 0.0000 -0.0000 0.0000 -88.8341 11.4193 31.8922 20.7947 -31.5879 -5.9420 -0.0000 0.0000 -2.8667 6.3339 -28.4731 -3.0292 -7.1250 0.0000 -0.0000 -14.1765 2.1046 14.0894 0.0000 -0.0000 0.0000 84.9504 -16.5895 30.9518 -23.1847 34.2901 -7.2421 0.0000 0.0000 9.1686 -8.1299 -26.5574 3.6545 7.1250 -0.0000 -0.0000 23.3009 -55.2091 -6.0827
-1.0819 18.1814 5.5962 -2.4411 -4.4015 1.5425 0.0000 0.0000 0.0000 -14.7943 -4.4681 17.2480 0.7029 -5.3586 -14.9343 -1.2767 20.9233 -16.0935 0.0705 -1.7135 -4.7147 0.0000 0.0000 0.0000 17.7692 -1.6366 8.5115 -0.0449 1.3676 -3.7608 -0.6588 -4.3525 -17.5281 -0.3236 -3.6564 10.1120 -0.1922 1.0090 1.8140 1.1920 1.3547 -0.0834 1.2906 0.6816 -1.1352 -3.8099 -2.4142 -10.2757 3.7742 -3.3484 17.5163 1.5470 -1.5281 7.1826 -0.0000 -0.0000 0.0000 -88.8272 11.4094 31.8497 20.7742 -31.5638 -5.9313 -0.0000 0.0000 -2.8514 6.2815 -28.5586 -3.0122 -7.1250 0.0000 -0.0000 -14.2091 2.0272 14.1443 -0.0000 -0.0000 0.0000 84.9538 -16.6136 30.9768 -23.1896 34.2955 -7.2448 0.0000 0.0000 9.1767 -8.1475 -26.4976 3.6548 7.1250 -0.0000 -0.0000 23.2452 -55.1579 -6.0373
-1.0817 18.1811 5.5969 -2.4467 -4.4033 1.5235 0.0000 0.0000 0.0000 -14.7877 -4.4422 17.2537 0.7014 -5.3530 -14.9182 -1.2688 20.8871 -16.1289 0.0660 -1.6573 -4.5594 0.0000 0.0000 0.0000 17.7713 -1.6444 8.5420 -0.0449 1.3682 -3.7625 -0.6624 -4.3334 -17.5563 -0.3287 -3.6848 10.1916 -0.1770 1.0135 1.8080 1.1870 1.3608 -0.0796 1.2770 0.6845 -1.1276 -3.5510 -2.7657 -11.2426 3.1211 -3.7530 18.5326 1.2410 -1.7492 7.6870 0.0000 0.0000 0.0000 -88.8203 11.3954 31.8056 20.7530 -31.5389 -5.9202 -0.0000 0.0000 -2.7636 6.2289 -28.6417 -2.9948 -7.1250 0.0000 -0.0000 -14.2416 1.9521 14.1985 0.0000 0.0000 0.0000 84.9659 -16.6241 30.9683 -23.1902 34.2962 -7.2452 0.0000 0.0000 9.1900 -8.0880 -26.5077 3.6291 7.1250 -0.0000 -0.0000 23.3100 -55.1557 -6.0542
-1.0818 18.1811 5.5975 -2.4334 -4.3936 1.5031 0.0000 0.0000 0.0000 -14.7974 -4.4025 17.2583 0.7012 -5.3523 -14.9161 -1.2610 20.8424 -16.1330 0.0605 -1.5871 -4.3658 0.0000 0.0000 0.0000 17.7603 -1.6504 8.5306 -0.0436 1.3481 -3.7070 -0.6664 -4.3070 -17.5828 -0.3325 -3.7059 10.2506 -0.1920 1.0152 1.7953 1.1844 1.3625 -0.0590 1.2832 0.6853 -1.0997 -3.7218 -2.5012 -10.5064 3.5883 -3.4480 17.7390 1.4604 -1.5831 7.2954 -0.0000 -0.0000 0.0000 -88.8175 11.3646 31.8001 20.7502 -31.5356 -5.9188 -0.0000 0.0000 -2.7192 6.1878 -28.6357 -2.9744 -7.1250 0.0000 -0.0000 -14.2651 1.9622 14.2209 -0.0000 -0.0000 0.0000 84.9772 -16.5985 30.9403 -23.1938 34.3000 -7.2472 0.0000 0.0000 9.1797 -8.0045 -26.5127 3.5919 7.1250 -0.0000 -0.0000 23.3947 -55.1441 -6.0714
-1.0813 18.1814 5.5974 -2.4314 -4.3830 1.5025 0.0000 0.0000 0.0000 -14.7994 -4.3908 17.2553 0.7018 -5.3546 -14.9227 -1.2635 20.8446 -16.0910 0.0635 -1.6264 -4.4741 0.0000 0.0000 0.0000 17.7594 -1.6515 8.5023 -0.0425 1.3298 -3.6567 -0.6685 -4.2758 -17.5859 -0.3298 -3.6911 10.2093 -0.1876 1.0128 1.8060 1.1875 1.3594 -0.0594 1.2838 0.6837 -1.1061 -3.6837 -2.5378 -10.5912 3.4929 -3.4857 17.7880 1.4185 -1.6060 7.3257 -0.0000 -0.0000 0.0000 -88.8309 11.3490 31.8359 20.8158 -31.6127 -5.9531 -0.0000 0.0000 -2.6565 6.1082 -28.1947 -2.8945 -7.1250 0.0000 -0.0000 -14.3005 2.3975 14.1430 -0.0000 -0.0000 0.0000 84.9812 -16.5679 30.9328 -23.1858 34.2913 -7.2427 0.0000 0.0000 9.1645 -7.8965 -26.5174 3.5435 7.1250 -0.0000 -0.0000 23.5034 -55.1277 -6.0923
-1.0805 18.1811 5.5974 -2.4486 -4.3634 1.5082 0.0000 0.0000 0.0000 -14.7840 -4.4095 17.2598 0.7024 -5.3569 -14.9294 -1.2697 20.8670 -16.0432 0.0691 -1.6955 -4.6649 0.0000 0.0000 0.0000 17.7718 -1.6653 8.4869 -0.0418 1.3197 -3.6289 -0.6720 -4.2278 -17.5940 -0.3334 -3.7109 10.2646 -0.1510 1.0087 1.8111 1.1886 1.3549 -0.0697 1.2643 0.6813 -1.1185 -3.4194 -2.8958 -11.5725 2.7993 -3.8901 18.7939 1.0947 -1.8313 7.8286 0.0000 0.0000 0.0000 -88.8293 11.3500 31.8851 20.8845 -31.6933 -5.9892 -0.0000 0.0000 -2.6220 6.0337 -27.8161 -2.8237 -7.1250 0.0000 -0.0000 -14.3357 2.7718 14.0799 0.0000 0.0000 0.0000 84.9894 -16.5608 30.9314 -23.1799 34.2850 -7.2394 0.0000 0.0000 9.1508 -7.7856 -26.5434 3.4964 7.1250 -0.0000 -0.0000 23.6283 -55.1301 -6.1289
-1.0802 18.1803 5.5983 -2.4462 -4.3416 1.4975 0.0000 0.0000 0.0000 -14.7883 -4.4135 17.2797 0.7033 -5.3601 -14.9386 -1.2677 20.8535 -16.0373 0.0700 -1.7064 -4.6951 0.0000 0.0000 0.0000 17.7643 -1.6862 8.4845 -0.0411 1.3080 -3.5968 -0.6756 -4.1967 -17.6137 -0.3391 -3.7420 10.3520 -0.1489 1.0065 1.7780 1.1851 1.3516 -0.0565 1.2604 0.6795 -1.0862 -3.7017 -2.5483 -10.6327 3.5005 -3.4986 17.8402 1.4223 -1.6120 7.3511 -0.0000 -0.0000 0.0000 -88.8041 11.3506 31.8942 20.8306 -31.6301 -5.9609 -0.0000 0.0000 -2.7417 6.0734 -28.2178 -2.8800 -7.1250 0.0000 -0.0000 -14.3212 2.3787 14.1699 -0.0000 -0.0000 0.0000 84.9902 -16.5526 30.9393 -23.1780 34.2829 -7.2383 0.0000 0.0000 9.1312 -7.7745 -26.4551 3.4806 7.1250 -0.0000 -0.0000 23.5822 -55.0475 -6.0674
-1.0804 18.1803 5.5992 -2.4389 -4.3302 1.4897 0.0000 0.0000 0.0000 -14.7882 -4.3409 17.2583 0.7036 -5.3615 -14.9425 -1.2625 20.8050 -15.9783 0.0721 -1.7325 -4.7669 0.0000 0.0000 0.0000 17.7575 -1.7011 8.4922 -0.0412 1.3093 -3.6004 -0.6748 -4.2093 -17.6125 -0.3413 -3.7542 10.3861 -0.1634 1.0042 1.7606 1.1822 1.3483 -0.0543 1.2660 0.6779 -1.0744 -3.8093 -2.4347 -10.3223 3.7449 -3.3701 17.5366 1.5349 -1.5404 7.1979 0.0000 0.0000 0.0000 -88.7751 11.3860 31.8999 20.7863 -31.5781 -5.9376 -0.0000 0.0000 -2.8490 6.0961 -28.5912 -2.9258 -7.1250 0.0000 -0.0000 -14.3171 2.0148 14.2622 0.0000 0.0000 0.0000 84.9751 -16.5530 30.9736 -23.1679 34.2719 -7.2326 0.0000 0.0000 9.1135 -7.7252 -26.3426 3.4447 7.1250 -0.0000 -0.0000 23.5581 -54.9354 -5.9949
-1.0807 18.1807 5.5992 -2.4357 -4.3287 1.4901 0.0000 0.0000 0.0000 -14.7764 -4.2271 17.2021 0.7030 -5.3591 -14.9356 -1.2584 20.7435 -15.8517 0.0775 -1.7959 -4.9421 0.0000 0.0000 0.0000 17.7555 -1.7124 8.5177 -0.0424 1.3287 -3.6537 -0.6708 -4.2508 -17.5953 -0.3392 -3.7424 10.3530 -0.1035 1.0295 1.9217 1.1395 1.3848 -0.1699 1.1833 0.6966 -1.2815 -3.8476 -2.4585 -10.2507 3.8174 -3.4148 17.6201 1.5615 -1.5586 7.2160 0.0000 -0.0000 0.0000 -88.6873 11.5673 32.0120 20.8075 -31.6029 -5.9487 -0.0000 0.0000 -2.9022 6.0999 -28.6036 -2.9289 -7.1250 0.0000 -0.0000 -14.3151 2.0022 14.2635 0.0000 -0.0000 0.0000 85.0587 -16.7430 30.8897 -23.1790 34.2840 -7.2389 0.0000 0.0000 9.1368 -7.6555 -26.3440 3.4135 7.1250 -0.0000 -0.0000 23.6268 -54.9234 -6.0068
-1.0801 18.1800 5.6000 -2.4156 -4.3312 1.4745 0.0000 0.0000 0.0000 -14.8064 -4.2543 17.2317 0.7021 -5.3560 -14.9268 -1.2537 20.7326 -15.9105 0.0722 -1.7335 -4.7698 0.0000 0.0000 0.0000 17.7253 -1.7262 8.5675 -0.0436 1.3483 -3.7078 -0.6693 -4.2693 -17.5905 -0.3401 -3.7474 10.3671 0.0036 1.0778 2.2138 1.0596 1.4543 -0.3685 1.0310 0.7314 -1.6456 -3.8512 -2.4901 -10.1199 3.8904 -3.4804 17.7519 1.5812 -1.5850 7.2396 0.0000 0.0000 0.0000 -88.5564 11.8532 32.1664 20.8177 -31.6150 -5.9541 -0.0000 0.0000 -2.9124 6.1280 -28.6083 -2.9428 -7.1250 0.0000 -0.0000 -14.2990 1.9949 14.2483 0.0000 0.0000 0.0000 85.2127 -17.0854 30.7322 -23.2036 34.3107 -7.2527 0.0000 0.0000 9.1674 -7.7334 -26.3514 3.4495 7.1250 -0.0000 -0.0000 23.5557 -54.9450 -5.9998
-1.0790 18.1793 5.6014 -2.3973 -4.3316 1.4528 0.0000 0.0000 0.0000 -14.8470 -4.3399 17.2958 0.7021 -5.3557 -14.9260 -1.2552 20.7719 -16.0130 0.0675 -1.6758 -4.6106 0.0000 0.0000 0.0000 17.6972 -1.7366 8.6028 -0.0441 1.3550 -3.7261 -0.6708 -4.2493 -17.5942 -0.3430 -3.7633 10.4118 0.0558 1.1057 2.3509 1.0203 1.4941 -0.4586 0.9562 0.7510 -1.8133 -3.8226 -2.5070 -10.0639 3.9030 -3.5155 17.8272 1.5780 -1.5992 7.2552 0.0000 -0.0000 0.0000 -88.5028 11.9838 32.2085 20.8144 -31.6110 -5.9523 -0.0000 0.0000 -2.8443 6.0836 -28.6189 -2.9224 -7.1250 0.0000 -0.0000 -14.3249 1.9891 14.2774 0.0000 -0.0000 0.0000 85.2785 -17.2631 30.6666 -23.2199 34.3283 -7.2619 0.0000 0.0000 9.1610 -7.9151 -26.2503 3.5188 7.1250 -0.0000 -0.0000 23.3142 -54.8872 -5.8996
-1.0785 18.1792 5.6017 -2.3950 -4.3365 1.4465 0.0000 0.0000 0.0000 -14.8503 -4.3151 17.2956 0.7029 -5.3587 -14.9346 -1.2580 20.7751 -15.9668 0.0728 -1.7401 -4.7878 0.0000 0.0000 0.0000 17.6958 -1.7278 8.5933 -0.0434 1.3451 -3.6989 -0.6725 -4.2292 -17.5999 -0.3422 -3.7592 10.4003 0.0608 1.1188 2.3472 1.0222 1.5117 -0.4544 0.9547 0.7597 -1.8070 -3.7285 -2.6391 -10.4319 3.6810 -3.6725 18.2202 1.4714 -1.6818 7.4499 0.0000 0.0000 0.0000 -88.5062 11.9857 32.2126 20.8220 -31.6200 -5.9563 -0.0000 0.0000 -2.7871 6.0539 -28.5904 -2.9054 -7.1250 0.0000 -0.0000 -14.3413 2.0198 14.2867 0.0000 0.0000 0.0000 85.2771 -17.2879 30.6578 -23.2383 34.3484 -7.2723 0.0000 0.0000 9.1382 -8.0045 -26.1089 3.5412 7.1250 -0.0000 -0.0000 23.1377 -54.7749 -5.7864
